#!OML:ASF F:\VICON\USERDATA\INSTALL\rory3\rory3.ASF
:FULLY-SPECIFIED
:DEGREES
386
root 0.954502 17.6799 43.6112 -1.6034 -2.02102 2.94106
lowerback 8.77405 -1.55631 -5.22756
upperback 0.112478 -2.53434 1.41027
thorax -4.51657 -1.12626 4.73166
lowerneck -16.6082 -2.35739 -2.59058
upperneck 22.6237 -3.09814 1.90265
head 10.0157 -1.43943 0.684336
rclavicle 2.13694e-015 -1.82882e-014
rhumerus -35.4455 -22.8298 -75.2509
rradius 24.8041
rwrist 7.2557
rhand -18.2207 25.1995
rfingers 7.12502
rthumb 8.0573 -4.6269
lclavicle 2.13694e-015 -1.82882e-014
lhumerus -20.6646 -6.40526 81.544
lradius 30.5343
lwrist 10.5176
lhand -30.1135 19.144
lfingers 7.12502
lthumb -3.42707 49.0962
rfemur -28.3326 8.44856 15.5779
rtibia 14.0615
rfoot -12.9636 -17.1839
rtoes -2.95215
lfemur 10.0607 -1.90511 -27.5504
ltibia 17.5369
lfoot -17.0795 -0.342616
ltoes -5.39703
387
root 0.921396 17.6574 43.7277 -1.2161 -2.35296 2.25805
lowerback 9.28179 -1.42112 -4.85268
upperback -0.206927 -2.33314 1.66249
thorax -5.16593 -1.00345 4.79296
lowerneck -16.3876 -2.25267 -2.44121
upperneck 22.4879 -2.9757 1.82793
head 9.91856 -1.38076 0.652044
rclavicle 7.15625e-015 -7.55382e-015
rhumerus -35.7965 -22.9189 -75.097
rradius 24.7426
rwrist 6.92039
rhand -18.4533 25.3508
rfingers 7.12502
rthumb 7.83283 -4.48415
lclavicle 7.15625e-015 -7.55382e-015
lhumerus -20.652 -6.86928 81.5539
lradius 30.9873
lwrist 10.8121
lhand -31.3493 19.3104
lfingers 7.12502
lthumb -4.62045 49.24
rfemur -28.9955 9.55585 16.1544
rtibia 13.7971
rfoot -12.2816 -17.4293
rtoes -5.39038
lfemur 9.83763 -1.94003 -26.664
ltibia 17.744
lfoot -16.9353 -0.545871
ltoes -5.21377
388
root 0.911337 17.6467 43.9676 -1.6464 -2.01341 2.37667
lowerback 8.80139 -1.5358 -4.8243
upperback 0.135227 -2.4581 1.59866
thorax -4.52506 -1.09572 4.69348
lowerneck -16.214 -2.18864 -2.49807
upperneck 22.0581 -2.90252 1.98126
head 9.73482 -1.33591 0.726789
rclavicle -2.75068e-014 1.98785e-015
rhumerus -36.0344 -23.1241 -74.8621
rradius 24.7777
rwrist 6.75957
rhand -18.5136 25.0312
rfingers 7.12502
rthumb 7.77466 -4.80585
lclavicle -2.75068e-014 1.98785e-015
lhumerus -20.3666 -7.01629 81.5747
lradius 31.1857
lwrist 10.7415
lhand -31.4295 17.7536
lfingers 7.12502
lthumb -4.69785 47.6815
rfemur -28.269 7.61194 16.9039
rtibia 14.2958
rfoot -11.7241 -15.2606
rtoes -5.96244
lfemur 11.2119 -1.87625 -26.7489
ltibia 17.9655
lfoot -17.6363 -0.42688
ltoes -9.30956
389
root 0.892442 17.6219 44.152 -1.83717 -2.11979 2.47473
lowerback 8.76064 -1.46721 -4.93826
upperback 0.363242 -2.3735 1.57677
thorax -4.26928 -1.06504 4.71701
lowerneck -16.8655 -2.46345 -2.76889
upperneck 22.2476 -3.25568 2.2012
head 9.94276 -1.49057 0.79514
rclavicle -1.21756e-014 2.78299e-015
rhumerus -35.9599 -23.7492 -74.5511
rradius 24.3461
rwrist 6.96343
rhand -18.3098 25.4884
rfingers 7.12502
rthumb 7.97133 -4.34125
lclavicle -1.21756e-014 2.78299e-015
lhumerus -19.8769 -7.23805 81.5563
lradius 31.3433
lwrist 10.7634
lhand -31.1703 16.7748
lfingers 7.12502
lthumb -4.44762 46.7081
rfemur -28.2936 6.40695 17.5352
rtibia 15.1942
rfoot -10.8929 -13.5494
rtoes -5.67811
lfemur 12.0851 -1.71444 -26.8431
ltibia 18.3998
lfoot -18.0631 0.246705
ltoes -15.0963
390
root 0.879896 17.6042 44.3209 -1.82438 -2.09412 2.72152
lowerback 8.84111 -1.45668 -5.12089
upperback 0.323982 -2.38669 1.4837
thorax -4.35081 -1.06506 4.72857
lowerneck -16.5672 -2.32199 -2.66171
upperneck 21.9447 -3.08839 2.20682
head 9.77243 -1.40677 0.804792
rclavicle 1.18028e-014 2.38542e-015
rhumerus -36.1177 -24.0756 -74.3169
rradius 23.9271
rwrist 7.03522
rhand -18.1085 25.9
rfingers 7.12502
rthumb 8.16565 -3.9222
lclavicle 1.18028e-014 2.38542e-015
lhumerus -19.792 -7.48684 81.5347
lradius 31.6079
lwrist 10.7402
lhand -31.7873 17.0738
lfingers 7.12502
lthumb -5.04339 46.9937
rfemur -28.9912 5.16899 17.9044
rtibia 17.0804
rfoot -10.4465 -12.1091
rtoes -4.29489
lfemur 12.507 -2.19911 -27.1786
ltibia 18.3222
lfoot -17.508 -0.286321
ltoes -13.1193
391
root 0.857037 17.5914 44.5053 -1.91413 -2.18307 2.24738
lowerback 9.01594 -1.42269 -4.66095
upperback 0.214013 -2.29939 1.59406
thorax -4.58747 -1.02023 4.58452
lowerneck -16.2322 -2.52232 -3.0464
upperneck 21.8094 -3.37218 2.61652
head 9.68469 -1.52688 0.977029
rclavicle -5.91881e-014 3.18055e-015
rhumerus -36.5636 -24.6286 -73.8181
rradius 23.572
rwrist 7.72144
rhand -18.1893 25.6983
rfingers 7.12502
rthumb 8.08763 -4.12695
lclavicle -5.91881e-014 3.18055e-015
lhumerus -20.1144 -7.52348 81.5857
lradius 32.0047
lwrist 10.4759
lhand -32.7268 15.794
lfingers 7.12502
lthumb -5.95047 45.6905
rfemur -29.2838 4.56021 18.9616
rtibia 18.8427
rfoot -10.001 -11.305
rtoes -3.37847
lfemur 13.0065 -2.60588 -26.7416
ltibia 18.8029
lfoot -17.345 -0.479071
ltoes -10.5393
392
root 0.832005 17.5571 44.6975 -2.12126 -2.12852 2.06041
lowerback 9.06997 -1.40225 -4.53689
upperback 0.336425 -2.2571 1.65211
thorax -4.49638 -1.0068 4.56916
lowerneck -15.9008 -2.34033 -2.7283
upperneck 21.5111 -3.09942 2.19367
head 9.49632 -1.42564 0.816246
rclavicle -6.95746e-015 -3.18055e-015
rhumerus -36.6476 -25.3233 -73.4225
rradius 23.1889
rwrist 8.53348
rhand -18.3324 25.6731
rfingers 7.12502
rthumb 7.94949 -4.15744
lclavicle -6.95746e-015 -3.18055e-015
lhumerus -20.0938 -7.57208 81.6689
lradius 32.4185
lwrist 10.3537
lhand -33.3669 14.5388
lfingers 7.12502
lthumb -6.56838 44.4169
rfemur -29.421 4.23785 19.5599
rtibia 20.711
rfoot -9.61757 -10.9646
rtoes -4.67724
lfemur 13.9432 -2.79645 -26.5483
ltibia 19.3214
lfoot -17.4411 -0.0531036
ltoes -11.8683
393
root 0.817945 17.5274 44.8837 -2.20294 -1.77555 2.43481
lowerback 8.96287 -1.49041 -4.8699
upperback 0.495746 -2.40518 1.56829
thorax -4.24319 -1.08578 4.67794
lowerneck -16.5564 -2.36193 -2.50606
upperneck 21.9113 -3.08568 1.80449
head 9.74891 -1.439 0.639107
rclavicle 3.41661e-014 9.14409e-015
rhumerus -36.5268 -25.5534 -73.3057
rradius 22.9244
rwrist 8.57608
rhand -18.4521 26.1341
rfingers 7.12502
rthumb 7.83396 -3.70079
lclavicle 3.41661e-014 9.14409e-015
lhumerus -19.7754 -7.64624 81.7259
lradius 32.6975
lwrist 10.664
lhand -33.131 14.9126
lfingers 7.12502
lthumb -6.34065 44.7977
rfemur -29.3745 3.73193 19.4083
rtibia 22.1563
rfoot -9.31172 -10.5472
rtoes -6.19734
lfemur 14.0367 -3.25996 -26.9795
ltibia 20.1802
lfoot -17.1592 -0.360655
ltoes -12.4616
